<svg width="32" height="32" viewBox="0 0 32 32" fill="none" xmlns="http://www.w3.org/2000/svg">
<rect width="32" height="32" rx="10" fill="#ECECEC"/>
<path d="M8.00109 15.5427C8.00109 10.7588 11.9303 7 16.6111 7C17.8267 7.0005 19.0277 7.25578 20.131 7.74814C21.2341 8.24052 22.213 8.9582 23 9.85148L21.8297 10.912C20.519 9.47443 18.8568 8.53179 16.6111 8.53179C12.8194 8.53179 9.75479 11.8075 9.75479 15.5309C9.75479 19.3015 12.8683 22.4358 16.6356 22.4358C17.4577 22.4536 18.2754 22.3151 19.0418 22.028C19.8083 21.7409 20.5086 21.3108 21.1026 20.7626V16.5177H15.2545V15.0095H22.8594V21.1956C21.408 23.0573 19.0462 24 16.6111 24C15.4676 23.997 14.336 23.7751 13.2823 23.3471C12.2285 22.919 11.2733 22.2934 10.4723 21.5066C9.67123 20.7199 9.04034 19.7874 8.61606 18.7637C8.19194 17.7399 7.98289 16.645 8.00109 15.5427Z" fill="#14213D"/>
</svg>
